<?xml version="1.0" encoding="utf-8"?>
<!-- Generator: Adobe Illustrator 26.0.1, SVG Export Plug-In . SVG Version: 6.00 Build 0)  -->
<svg version="1.1" id="Layer_1" xmlns="http://www.w3.org/2000/svg" xmlns:xlink="http://www.w3.org/1999/xlink" x="0px" y="0px"
	 viewBox="0 0 28.35 28.35" style="enable-background:new 0 0 28.35 28.35;" xml:space="preserve">
<style type="text/css">
	.st0{fill:#005B8E;}
	.st1{fill:#FFFFFF;}
</style>
<path class="st0" d="M0.41,13.16c-1.3,4.31,2.05,13.36,10.77,14.91c4.15,0.74,13.32-2.72,15.46-5.4c4.43-5.51-1.51-23.85-9.82-22.44
	C7.74,1.78,1.74,8.74,0.41,13.16z"/>
<path class="st1" d="M22.97,12.6H16.9v-4c0-0.22,0.11-0.33,0.33-0.33h6.15V6.39h-6.69c-0.57,0-1.03,0.18-1.38,0.53
	c-0.35,0.35-0.53,0.81-0.53,1.38v4.29v1.87v7.18H8.4c-0.22,0-0.33-0.11-0.33-0.33v-8.29c0-0.22,0.11-0.33,0.33-0.33h4.97l-0.6-1.87
	H7.86c-0.57,0-1.03,0.18-1.38,0.53c-0.35,0.35-0.53,0.82-0.53,1.38v8.87c0,0.57,0.18,1.03,0.53,1.38c0.35,0.35,0.81,0.53,1.38,0.53
	h6.92h2.12v-9.05h6.82L22.97,12.6z"/>
</svg>
