<?xml version="1.0" encoding="utf-8"?>
<!-- Generator: Adobe Illustrator 26.0.1, SVG Export Plug-In . SVG Version: 6.00 Build 0)  -->
<svg version="1.1" id="Layer_1" xmlns="http://www.w3.org/2000/svg" xmlns:xlink="http://www.w3.org/1999/xlink" x="0px" y="0px"
	 viewBox="0 0 113.39 42.52" style="enable-background:new 0 0 113.39 42.52;" xml:space="preserve">
<style type="text/css">
	.st0{fill:#005B8E;}
	.st1{fill:#848484;}
	.st2{fill:#288DCD;}
	.st3{fill:url(#SVGID_1_);}
	.st4{enable-background:new    ;}
</style>
<path class="st0" d="M43.92,25.04c-0.13,0.23-0.39,0.62-0.57,0.86c-0.21,0.29-0.7,0.44-0.8,0.73c-0.08-0.05-0.29,0.16-0.47,0.44
	c-1.32,1.92-3.43,3.32-5.17,3.32c-0.49,0-0.54-0.96-0.54-1.09c0-1.43,1.33-6.22,2.37-6.43c-0.39,0.05-3.81-1.11-3.81-2.41
	c0-0.34,0.39-1.11,0.75-1.11c0.49,0,0.78,0.27,1.45,0.27h2.18c0.41,0,2.96,0.26,2.54,0.78c-0.03,0.08,0.13,0.08,0.18,0.23
	c0.05,0.13,0.08,0.39,0.08,0.47c0,0.67-2.8,1.77-2.93,1.77c-0.05,0-0.13-0.05-0.26-0.03c0.08,0.18,0.21,0.05,0.21,0.41
	c0,0.05-0.05,0.52-0.13,1.09c-0.08,0.47-0.34,1.35-0.44,2.15c-0.05,0.36-0.05,0.96-0.18,1.43l0.03,0.16
	c1.74-0.73,3.53-2.2,5.27-3.09L43.92,25.04z M52.51,24.7c0,0.05-0.03,0.8-0.08,1.17c-0.05,0.47-0.21,1.14-0.31,1.95
	c-0.05,0.34-0.18,1.71-0.34,1.95c-0.03,0.05-0.13,0.78-0.36,0.78c-0.05,0-0.08-0.03-0.13-0.03c-0.08,0-0.39,0.18-0.44,0.18
	c-0.08,0-0.05-0.05-0.1-0.05s-0.29,0.13-0.34,0.13c-0.08,0-0.03-0.03-0.08-0.03c-0.03,0-0.78,0.31-0.83,0.31
	c-0.41,0-0.7-0.65-0.7-0.93l0.16-1.66v-0.78l0.29-3.42l-1.61,0.62c-0.05,0-0.1-0.03-0.16-0.03c-0.1,0-0.21,0.05-0.29,0.1v1.22
	c0,0.16-0.13,3.37-0.99,3.37c-0.26,0-0.16-0.34-0.47-0.34c-0.29,0-0.61,0.42-0.66,0.42c-0.36,0-0.57-1.37-0.57-1.4v-3.42l0.29-4.33
	c0-0.1-0.13-0.75-0.13-0.75c0-0.26,0.36-0.39,0.49-0.39c0.57,0,1.36,0.95,1.49,1.29c0.34,1.01,0.34,1.97,0.44,2.75l1.58-0.13
	c0.05,0,0.34,0.05,0.39,0.05c0.08,0,0.31,0.03,0.34-0.08c0.13-0.41,0.31-2.44,0.31-2.85v-1.06c0-0.13,0-0.73,0.41-0.73
	c0.88,0,1.66,1.61,1.76,1.97C52.25,21.83,52.51,23.38,52.51,24.7z"/>
<path class="st0" d="M63.81,26.85c0,0.78-0.85,1.27-1.63,1.27c-0.1,0-0.44-0.34-0.49-0.39c-1.14-1.37-1.89-3.39-2.36-4.95
	c-1.24,1.35-5.68,6.74-5.86,6.74c-0.36,0-0.52-0.41-0.52-0.65c0-0.34,0.18-0.83,0.44-1.19c1.06-1.58,3.37-4.61,4.38-6.17
	c0.39-0.62,0.88-1.32,1.24-2.1c-0.05-0.03-0.1,0-0.16,0c-0.08,0-3.4,0.88-4.38,0.88c-0.44,0-1.01-0.67-1.01-0.99
	c0-0.26,1.09-0.65,1.27-0.67c1.43-0.31,2.85-0.75,4.28-1.14c0.34-0.08,1.04-0.13,1.12-0.13c0.65,0,1.45,0.75,1.45,1.4
	c0,1.19-0.96,2.36-1.82,3.55c0.21,0.08,1.04-0.16,1.19,0C61.65,23.04,63.81,25.68,63.81,26.85z M60.54,15.95
	c0,0.16-0.16,0.74-0.75,0.74c-0.05,0-0.29-0.03-0.36-0.03c-0.05,0-0.96-0.44-1.4-0.65c-0.91-0.41-2.65-2.1-2.65-3.03
	c0-0.29,0.73-0.72,1.01-0.72C57.74,12.26,60.54,15.22,60.54,15.95z M70.33,20.67c0,0.05-0.03,0.34-0.03,0.41v0.91
	c0,0.05-0.1,1.66-0.21,2.49c-0.03,0.31-0.29,2.15-0.8,2.36c-0.1,0.05-0.57,0.05-0.78,0.08c-0.1,0.03-1.05,0.48-1.2,0.48
	c-0.23,0-0.36-0.73-0.36-0.73c-0.23-0.47-0.34-2.7-0.31-3.19l0.1-2.07c-0.49,0.44-2.62,1.01-3.45,1.01c-0.05,0-0.16-0.03-0.21-0.03
	c-0.08,0-0.39,0.16-0.47,0.16c-0.39,0-0.49-0.67-0.49-0.75c0-0.41,0.29-0.44,0.7-0.49c0.29-0.05,2-0.47,2.96-0.73
	c0.26-0.08,0.8-0.29,1.19-0.49c0.08-0.67,0.13-1.37,0.23-2.05l0.03-1.32c-0.08-0.23-0.05-0.6,0.29-0.6c0.16,0,1.41,0.4,1.46,0.48
	C69.68,17.37,70.33,19.53,70.33,20.67z M70.61,31.2c0,2.37-3.59,4.96-5.66,4.96c-1.28,0-3.28-0.56-3.28-2.41
	c0-2.27,3.96-5.93,5.7-5.93c0.3,0,1.02,0.28,1.02,0.66c0,0.11-0.43,0.39-0.55,0.49c-0.11,0.14-0.79,0.04-1.17,0.31
	c-1.59,1.12-2.21,2.72-2.21,4.05c0,0.35,0.19,1.15,0.87,1.15c1.58,0,3.28-1.46,3.28-2.9c0-0.45-1.21-0.66-1.21-1.01
	c0-0.07,0.19-0.17,0.26-0.28c0.26-0.66,1.06-0.91,1.58-0.91C70.23,29.39,70.61,30.89,70.61,31.2z"/>
<path class="st1" d="M86.79,22.06c0,0.11-0.11,0.51-0.18,0.53c-0.09,0.07-0.27,0.02-0.42,0.07c-0.09,0.04-0.13,0.09-0.2,0.09
	s-0.91-0.04-0.98-0.04l-1.64,0.04c-1.69,0.04-1.75,0.2-2.57,0.2c-0.07,0-0.11-0.02-0.18-0.02c-0.49,0-5.35,0.78-6.19,0.78
	c-0.05,0-0.4-0.02-0.47-0.02s-0.87,0.18-0.91,0.18c-0.29,0-0.33-0.6-0.33-0.64c0-0.55,0.2-0.58,0.16-1.13
	c0.09-0.04,0.27-0.09,0.33-0.09c0.04,0,0.13,0.02,0.2,0.02s3.82-0.98,4.62-1.24c0.07-0.02,0.24-0.33,0.36-0.49
	c0.36-0.49,0.51-0.84,0.69-1.29c0.07-0.2,0.2-0.51,0.16-0.8c-0.04-0.36-0.02-0.36,0.27-0.36c0.42,0,0.89,0.31,0.89,0.82
	c0,0.55-0.33,1.44-0.62,1.73c0.04,0.04,0.09,0.04,0.13,0.04l2.26-0.18l1.51-0.02c0.51,0,2.77,0,2.77,0.64
	c0.02,0.11,0.07,0.38,0.07,0.55c0.04,0.02,0.11,0.02,0.18,0.02C86.7,21.66,86.79,21.99,86.79,22.06z M83.1,15.91
	c0,0.42-2.69,1.15-3.46,1.4c-0.24,0.09-0.64,0.2-0.93,0.31c-0.55,0.2-2.35,0.84-2.35,0.84c-0.73,0-0.71-1.07-0.71-1.33
	c0-0.55,0.51-1.82,0.51-2.6l-0.13-1.09c0-0.13-0.02-0.31,0.18-0.31c1.29,0,1.51,2.04,1.51,2.53c0,0.04-0.04,0.47-0.07,0.71
	c1.44-0.4,2.89-0.91,4.33-0.91C82.08,15.47,83.1,15.54,83.1,15.91z M82.9,26.92c0,0.07-0.24,0.71-0.29,0.8
	c-0.75,1.31-2.44,2.24-3.57,2.24c-1.09,0-1.8-1.02-1.8-1.91c0-1.02,0.62-2.11,1.78-3.04c0.42-0.35,0.44-0.67,0.8-0.67
	s0.55,0.29,0.55,0.58c0,0.24-2.02,2.29-2.02,3.33c0,0.38,0.31,0.67,0.67,0.67c0.51,0,2.31-1.07,2.31-1.53
	c0-1.02-0.95-0.87-1.38-0.87c-0.16,0-0.13-0.09-0.13-0.16c0-0.84,1.27-0.51,1.8-0.36C81.84,26.08,82.9,26.72,82.9,26.92z"/>
<path class="st1" d="M96.28,29.94c0,0.42-0.07,1-0.62,1l-3.55,0.04c-0.04,0-0.29,0-0.47,0.02c-0.33,0.02-0.84,0.02-1.24,0.07
	c-0.38,0.05-1.13,0.16-1.18,0.16h-0.49c-0.02,0-0.33,0.04-0.38,0.04l-1.38,0.05c0,0-0.89,0.09-1,0.09c-0.27,0-0.69,0.02-1.18,0.09
	c-0.11,0.09-0.04,0.16-0.27,0.16c-0.07,0-0.33-0.02-0.38-0.02c-0.13,0-0.24-0.13-0.24-0.27c0-0.22,0.18-0.29,0.22-0.38
	c0.07-0.24,0.29-0.29,0.64-0.44c1.04-0.49,2.73-1.2,4.04-1.42c1.11-0.18,3.88-0.47,5.06-0.47c0.47,0,2.06,0.04,2.17,0.73
	C96.08,29.5,96.28,29.63,96.28,29.94z M91.99,21.69c0,0.27-0.64,1.02-0.69,1.07c-0.73,1.13-2.26,2.84-3.64,3.84
	c-0.09,0.07-0.4,0.11-0.53,0.11c-0.16,0-0.42-0.13-0.42-0.33c0-0.4,0.22-1.07,0.44-1.4c0.67-1,0.91-1.18,1.4-1.73
	c0.11-0.13,2.33-2.4,2.8-2.4C91.7,20.84,91.99,21.53,91.99,21.69z M91.48,34.8c0,0.24,0.07,1.84-0.67,1.84
	c-0.16,0-0.4-0.22-0.4-0.24c-0.04-0.02-0.18-0.02-0.2-0.07c-0.18-0.29-0.2-0.67-0.2-1.04c0-0.18,0.38-3.57,0.64-3.57
	C91.48,31.72,91.48,34.49,91.48,34.8z M93.72,26.3c0,0.29-0.16,0.51-0.42,0.51c-0.07,0-0.36-0.02-0.4-0.02s-0.09,0.02-0.16,0.02
	c-0.29,0-0.07-0.33-0.11-0.42c-0.16-0.22-0.58-0.67-0.89-1c-0.44-0.51-0.58-0.6-0.58-0.98c0-0.16,0.13-0.29,0.31-0.29
	C92.57,24.13,93.72,25.28,93.72,26.3z"/>
<path class="st1" d="M104.16,27.84c0,0.27-0.09,0.53-0.44,0.53c-1.18,0-1.64-1.89-2.4-2.09c-0.09-0.02-0.24-0.22-0.29-0.22
	c0,0-1.22,1.4-1.49,1.58c-0.31,0.27-1.02,0.78-1.6,0.98c-0.29,0.11-0.75,0.62-0.75,0.62c-0.04,0-0.13-0.13-0.18-0.13
	s-0.13,0.07-0.2,0.11c-0.13-0.18-0.24-0.42-0.24-0.58c0-0.6,0.89-1.95,1.2-2.42c1.13-1.69,2.31-3.33,3.4-5.19
	c0.49-0.82,0.11-0.91,0.67-0.91c0.73,0,1.15,0.71,1.15,1.31c0,1.35-0.73,2.75-1.53,4.06C101.85,25.36,104.16,26.86,104.16,27.84z
	 M112.14,31.72c0,0.36-0.47,0.51-0.69,0.53c-1,0.13-2.02,0.36-3.04,0.53c-0.69,0.13-2.73,0.53-3.44,0.53c-0.38,0-2.15,0-2.15-0.96
	c0-0.16,0.11-0.51,0.22-0.6c0.89-0.73,1.89-1.6,2.64-2.17c0.02,0,0.78-0.38,0.91-0.38c0.22,0,0.56,0.13,0.56,0.4
	c0,0.18-0.13,0.55-0.42,0.55c-0.04,0-0.02-0.02-0.07-0.02c-0.42,0-2.64,2.13-2.73,2.22c0.04,0.02,0.07,0,0.11,0
	c1.04,0,5.33-1.42,6.95-1.42c0.02,0,0.38,0.09,0.38,0.09c0.05,0,0.27-0.04,0.31-0.04C111.88,30.99,112.14,31.64,112.14,31.72z
	 M112.92,25.53c-0.11,0.4-1.02,0.07-2.22,0.04c-0.05,0-0.6,0.04-0.93,0.11c-0.02,0-0.07,0.11-0.11,0.16
	c-0.09,0.09-0.2,0.09-0.27,0.09c-0.04,0-0.24-0.07-0.29-0.07c-0.11,0-0.16,0.53-0.18,0.62c-0.13,0.71-1.04,1.89-1.84,1.89
	c-0.04,0-0.18-0.11-0.22-0.11c-0.11,0-0.29,0.31-0.31,0.36c-0.27-0.13-0.22-0.29-0.22-0.4c0-0.53,0.82-4.13,0.82-6.75V20.8
	c0-0.47-0.58-0.58-0.58-0.91c0-0.29,0.51-0.36,0.6-0.36c1.82,0,2.04,3.22,2.04,4.04c0,0.4-0.09,0.84-0.09,1.29v0.18
	c0.33-0.07,1.33-0.33,1.91-0.33c0.29,0,1,0.16,1.15,0.18C112.68,24.91,113.05,25.18,112.92,25.53z"/>
<polyline class="st2" points="59.04,36.28 51.64,36.21 44.42,34.45 37.2,36.21 29.98,34.45 22.75,36.21 15.53,34.45 8.31,36.21 
	1.16,36.16 1.15,34.95 8.31,34.93 15.53,33.17 22.75,34.93 29.98,33.17 37.2,34.93 44.42,33.17 51.64,34.93 59.04,34.99 "/>
<polyline class="st2" points="59.04,37.65 51.64,37.6 44.42,35.84 37.2,37.6 29.98,35.84 22.75,37.6 15.53,35.84 8.31,37.6 
	1.16,37.54 1.15,37.34 8.31,37.32 15.53,35.56 22.75,37.32 29.98,35.56 37.2,37.32 44.42,35.56 51.64,37.32 59.04,37.36 "/>
<polyline class="st2" points="59.04,39.05 51.64,39.02 44.42,37.23 37.2,38.99 29.98,37.23 22.75,38.99 15.53,37.23 8.31,38.99 
	1.16,38.93 1.15,38.73 8.31,38.71 15.53,36.95 22.75,38.71 29.98,36.95 37.2,38.71 44.42,36.95 51.64,38.73 59.04,38.77 "/>
<polyline class="st2" points="59.04,40.46 51.64,40.43 44.42,38.64 37.2,40.4 29.98,38.64 22.75,40.4 15.53,38.64 8.31,40.4 
	1.16,40.34 1.15,40.14 8.31,40.12 15.53,38.35 22.75,40.12 29.98,38.35 37.2,40.12 44.42,38.35 51.64,40.14 59.04,40.18 "/>
<polyline class="st2" points="59.04,41.87 51.64,41.83 44.42,40.05 37.2,41.81 29.98,40.05 22.75,41.81 15.53,40.05 8.31,41.81 
	1.16,41.75 1.15,41.55 8.31,41.52 15.53,39.76 22.75,41.52 29.98,39.76 37.2,41.52 44.42,39.76 51.64,41.55 59.04,41.59 "/>
<linearGradient id="SVGID_1_" gradientUnits="userSpaceOnUse" x1="1.15" y1="30.6565" x2="49.75" y2="30.6565" gradientTransform="matrix(1 0 0 -1 0 42.3465)">
	<stop  offset="0" style="stop-color:#75C157"/>
	<stop  offset="1" style="stop-color:#00A1BF"/>
</linearGradient>
<polygon class="st3" points="49.75,18.02 49.75,13.83 38.7,2.48 34.15,7.15 27.76,0.59 16.74,11.9 12.21,7.25 1.15,18.6 1.15,22.79 
	12.21,11.44 16.7,16.05 16.7,16.13 16.74,14.96 16.75,16.1 19.34,13.44 19.33,13.43 27.76,4.78 38.82,16.13 38.82,11.94 36.17,9.24 
	38.7,6.67 "/>
<g class="st4">
	<path class="st0" d="M5.11,23.94h2.47c0.12,0,0.2,0.05,0.24,0.16c0.04,0.1,0.05,0.2,0.02,0.28c-0.06,0.18-0.16,0.36-0.27,0.53
		c-0.12,0.17-0.25,0.34-0.41,0.5l1.31,0.8c0.05,0.03,0.08,0.08,0.1,0.16c0.02,0.07,0.02,0.12,0.02,0.16
		c-0.02,0.07-0.05,0.13-0.09,0.17c-0.04,0.05-0.09,0.07-0.15,0.08c-0.05,0.02-0.11,0.02-0.16,0c-0.05-0.02-0.09-0.04-0.13-0.07
		l-1.28-0.94c-0.29,0.26-0.6,0.48-0.92,0.66s-0.6,0.31-0.84,0.38c-0.07,0.03-0.13,0.03-0.18,0.01c-0.05-0.02-0.08-0.05-0.1-0.08
		c-0.02-0.04-0.01-0.08,0.01-0.13c0.02-0.05,0.07-0.09,0.14-0.14c0.19-0.09,0.4-0.21,0.61-0.36c0.22-0.15,0.43-0.32,0.63-0.5
		c0.2-0.19,0.39-0.38,0.56-0.58s0.3-0.41,0.4-0.61h-2c-0.08,0-0.14-0.02-0.18-0.07c-0.04-0.05-0.06-0.1-0.06-0.16
		c0-0.06,0.02-0.12,0.06-0.17C4.95,23.96,5.02,23.94,5.11,23.94z M5.74,23.29l-0.4-0.33c-0.05-0.03-0.08-0.08-0.09-0.14
		s0-0.12,0.04-0.17c0.04-0.04,0.08-0.06,0.13-0.06c0.05,0,0.09,0,0.14,0.02c0.21,0.11,0.44,0.2,0.71,0.26
		c0.26,0.06,0.54,0.09,0.83,0.09c0.1,0,0.17,0.02,0.22,0.07c0.05,0.05,0.07,0.1,0.07,0.17c0,0.08-0.03,0.15-0.08,0.19
		s-0.12,0.06-0.18,0.06H6.34c-0.14,0-0.26-0.01-0.36-0.04C5.88,23.38,5.8,23.34,5.74,23.29z M7.04,28.69c0-0.2,0.04-0.39,0.12-0.57
		s0.19-0.34,0.32-0.48C7.63,27.5,7.8,27.39,8,27.31c0.2-0.08,0.42-0.12,0.67-0.12c0.24,0,0.46,0.04,0.66,0.12s0.37,0.19,0.52,0.32
		c0.14,0.14,0.26,0.3,0.34,0.48c0.08,0.18,0.12,0.38,0.12,0.59s-0.04,0.41-0.12,0.59s-0.2,0.34-0.35,0.48
		c-0.14,0.14-0.32,0.25-0.52,0.32c-0.2,0.08-0.42,0.12-0.65,0.12c-0.25,0-0.47-0.04-0.67-0.12C7.8,30,7.63,29.89,7.48,29.75
		c-0.14-0.14-0.25-0.3-0.32-0.48C7.08,29.09,7.04,28.9,7.04,28.69z M7.64,28.69c0,0.27,0.09,0.5,0.28,0.71
		c0.19,0.2,0.44,0.3,0.74,0.3c0.15,0,0.29-0.03,0.42-0.08c0.13-0.06,0.24-0.13,0.34-0.23c0.09-0.1,0.16-0.21,0.22-0.33
		c0.05-0.12,0.08-0.25,0.08-0.37c0-0.27-0.1-0.5-0.3-0.71s-0.45-0.3-0.75-0.3c-0.29,0-0.54,0.1-0.73,0.3S7.64,28.42,7.64,28.69z
		 M8.37,25.56c-0.05,0-0.1-0.02-0.14-0.07c-0.04-0.04-0.06-0.1-0.06-0.17c0-0.08,0.02-0.14,0.06-0.18c0.04-0.04,0.09-0.06,0.14-0.06
		h1.42v-1.66c0-0.16-0.04-0.27-0.12-0.32S9.5,23,9.36,22.97c-0.11-0.02-0.19-0.04-0.24-0.07s-0.07-0.07-0.07-0.12
		c0-0.06,0.03-0.11,0.08-0.14c0.05-0.03,0.12-0.04,0.18-0.04h0.75c0.09,0,0.17,0.04,0.23,0.11c0.06,0.07,0.09,0.16,0.09,0.25v3.44
		c0,0.26-0.04,0.44-0.13,0.57c-0.09,0.12-0.19,0.18-0.32,0.18H9.79v-1.59H8.37z"/>
	<path class="st0" d="M11.97,23.43h2.33c0.12,0,0.2,0.05,0.24,0.16c0.05,0.11,0.06,0.2,0.04,0.27c-0.06,0.21-0.16,0.42-0.28,0.63
		c-0.12,0.21-0.26,0.41-0.41,0.6l1.32,0.97c0.05,0.05,0.08,0.11,0.1,0.16s0.03,0.09,0.03,0.12c0,0.08-0.02,0.14-0.06,0.19
		s-0.09,0.09-0.16,0.11c-0.05,0.02-0.1,0.01-0.16,0c-0.06-0.02-0.12-0.05-0.16-0.11l-1.24-1.08c-0.3,0.32-0.62,0.59-0.95,0.81
		s-0.62,0.39-0.85,0.48c-0.06,0.03-0.11,0.03-0.15,0.01c-0.04-0.02-0.07-0.05-0.09-0.08c-0.02-0.04-0.03-0.08-0.02-0.12
		s0.05-0.08,0.1-0.11c0.22-0.12,0.44-0.28,0.67-0.47c0.23-0.19,0.44-0.4,0.65-0.63c0.2-0.22,0.38-0.46,0.55-0.71
		c0.16-0.25,0.29-0.49,0.38-0.72h-1.9c-0.08,0-0.14-0.03-0.18-0.08s-0.06-0.11-0.06-0.16c0-0.06,0.02-0.12,0.06-0.17
		S11.88,23.43,11.97,23.43z M13.77,28.64c0-0.21,0.04-0.41,0.12-0.6c0.08-0.19,0.19-0.35,0.34-0.49c0.14-0.14,0.32-0.26,0.52-0.34
		c0.2-0.08,0.42-0.13,0.65-0.13c0.22,0,0.44,0.04,0.64,0.13c0.2,0.09,0.37,0.2,0.52,0.34c0.15,0.14,0.27,0.3,0.35,0.49
		c0.09,0.19,0.13,0.39,0.13,0.6c0,0.21-0.04,0.41-0.13,0.6c-0.09,0.19-0.2,0.35-0.35,0.49c-0.14,0.14-0.32,0.26-0.52,0.34
		c-0.2,0.08-0.41,0.12-0.64,0.12c-0.24,0-0.45-0.04-0.65-0.12c-0.2-0.08-0.37-0.2-0.51-0.34c-0.14-0.14-0.26-0.3-0.34-0.49
		C13.82,29.05,13.77,28.85,13.77,28.64z M14.37,28.64c0,0.14,0.03,0.28,0.08,0.41c0.05,0.13,0.13,0.24,0.22,0.34
		c0.1,0.1,0.21,0.17,0.33,0.23c0.13,0.06,0.26,0.08,0.4,0.08c0.14,0,0.27-0.03,0.4-0.08c0.13-0.06,0.24-0.13,0.33-0.23
		c0.1-0.1,0.17-0.21,0.23-0.34c0.06-0.13,0.08-0.26,0.08-0.41c0-0.14-0.03-0.27-0.08-0.4S16.23,28,16.13,27.9
		c-0.1-0.1-0.21-0.17-0.33-0.23c-0.13-0.06-0.26-0.09-0.4-0.09c-0.14,0-0.28,0.03-0.4,0.09c-0.13,0.06-0.24,0.14-0.33,0.23
		c-0.09,0.1-0.16,0.22-0.22,0.34C14.39,28.37,14.37,28.5,14.37,28.64z M15.01,25.17c-0.05,0-0.09-0.02-0.13-0.06
		s-0.06-0.1-0.06-0.18c0-0.07,0.02-0.13,0.06-0.18c0.04-0.05,0.09-0.07,0.14-0.07h1.6v-1.28c0-0.16-0.04-0.27-0.12-0.32
		s-0.18-0.09-0.32-0.12c-0.11-0.02-0.19-0.04-0.24-0.07s-0.07-0.07-0.07-0.12c0-0.06,0.03-0.11,0.08-0.14
		c0.05-0.03,0.12-0.04,0.18-0.04h0.75c0.09,0,0.17,0.04,0.23,0.11c0.06,0.07,0.09,0.16,0.09,0.25v3.22c0,0.25-0.04,0.44-0.12,0.56
		c-0.08,0.12-0.19,0.18-0.32,0.18h-0.15v-1.74H15.01z"/>
	<path class="st0" d="M18.59,26.29h2.86v-0.62c-0.23-0.03-0.43-0.09-0.61-0.18c-0.18-0.09-0.33-0.21-0.45-0.34s-0.22-0.28-0.28-0.45
		c-0.06-0.17-0.1-0.34-0.1-0.51c0-0.2,0.04-0.39,0.12-0.57s0.2-0.34,0.35-0.49c0.15-0.14,0.33-0.25,0.54-0.34
		c0.21-0.09,0.46-0.13,0.72-0.13c0.25,0,0.47,0.04,0.69,0.13c0.21,0.08,0.39,0.2,0.55,0.34c0.15,0.14,0.27,0.3,0.36,0.49
		c0.09,0.18,0.13,0.37,0.13,0.57c0,0.18-0.04,0.35-0.1,0.51s-0.17,0.31-0.3,0.44c-0.12,0.13-0.27,0.25-0.45,0.34
		s-0.37,0.15-0.59,0.18v0.63h2.84c0.08,0,0.14,0.03,0.18,0.08c0.04,0.05,0.06,0.1,0.06,0.15c0,0.06-0.02,0.12-0.06,0.17
		c-0.04,0.05-0.1,0.07-0.18,0.07h-6.27c-0.08,0-0.14-0.03-0.18-0.08c-0.04-0.05-0.06-0.11-0.06-0.17c0-0.05,0.02-0.1,0.06-0.15
		C18.45,26.31,18.51,26.29,18.59,26.29z M23.49,27.83v1.63c0,0.25-0.04,0.43-0.13,0.56c-0.09,0.13-0.19,0.19-0.29,0.19H22.9v-2.22
		h-3c-0.05,0-0.09-0.02-0.13-0.07c-0.04-0.05-0.06-0.1-0.06-0.17c0-0.06,0.02-0.11,0.06-0.17c0.04-0.05,0.08-0.08,0.13-0.08h3.27
		c0.1,0,0.17,0.03,0.23,0.09S23.49,27.72,23.49,27.83z M20.6,24.18c0,0.27,0.1,0.51,0.31,0.71c0.21,0.2,0.48,0.3,0.82,0.3
		c0.32,0,0.59-0.1,0.8-0.3c0.21-0.2,0.32-0.44,0.32-0.71c0-0.13-0.03-0.26-0.09-0.39s-0.14-0.24-0.23-0.33
		c-0.1-0.1-0.22-0.17-0.36-0.23c-0.14-0.06-0.28-0.09-0.44-0.09c-0.17,0-0.32,0.03-0.46,0.09c-0.14,0.06-0.26,0.14-0.36,0.23
		c-0.1,0.1-0.17,0.21-0.23,0.33C20.63,23.92,20.6,24.05,20.6,24.18z"/>
	<path class="st0" d="M25.98,24.05h2.46c0.12,0,0.2,0.05,0.24,0.16s0.05,0.2,0.02,0.28c-0.06,0.2-0.15,0.41-0.27,0.61
		c-0.12,0.2-0.27,0.39-0.43,0.58l1.39,0.97c0.05,0.04,0.08,0.1,0.1,0.17c0.02,0.07,0.02,0.12,0.02,0.16
		c-0.02,0.06-0.04,0.12-0.09,0.17s-0.1,0.08-0.16,0.08c-0.05,0.01-0.1,0.01-0.14,0s-0.09-0.04-0.14-0.09l-1.35-1.08
		c-0.29,0.27-0.59,0.52-0.91,0.73c-0.32,0.21-0.6,0.37-0.85,0.47c-0.07,0.03-0.13,0.04-0.17,0.02c-0.04-0.02-0.08-0.05-0.09-0.1
		c-0.02-0.05-0.01-0.1,0-0.15c0.02-0.05,0.06-0.09,0.12-0.13c0.17-0.09,0.37-0.22,0.59-0.39c0.22-0.17,0.44-0.36,0.65-0.58
		c0.21-0.21,0.4-0.43,0.58-0.67c0.18-0.24,0.31-0.48,0.4-0.71h-1.98c-0.08,0-0.14-0.03-0.18-0.08c-0.04-0.05-0.06-0.11-0.06-0.17
		c0-0.06,0.02-0.11,0.06-0.16C25.83,24.07,25.89,24.05,25.98,24.05z M26.56,23.4l-0.39-0.34c-0.05-0.03-0.09-0.08-0.1-0.14
		c-0.01-0.06,0-0.11,0.04-0.17c0.04-0.04,0.08-0.07,0.13-0.07c0.05,0,0.09,0,0.14,0.02c0.21,0.11,0.44,0.2,0.71,0.26
		c0.26,0.06,0.54,0.09,0.83,0.09c0.1,0,0.17,0.03,0.22,0.08c0.05,0.05,0.07,0.11,0.07,0.17c0,0.08-0.03,0.14-0.08,0.18
		c-0.06,0.04-0.12,0.06-0.18,0.06h-0.77c-0.14,0-0.27-0.01-0.36-0.03C26.71,23.48,26.63,23.45,26.56,23.4z M27.59,29.47V28.6
		c0-0.16-0.03-0.26-0.09-0.3c-0.06-0.05-0.15-0.08-0.28-0.12c-0.12-0.02-0.19-0.05-0.23-0.08s-0.05-0.08-0.05-0.15
		c0-0.05,0.02-0.09,0.08-0.12c0.05-0.03,0.11-0.04,0.17-0.04h0.67c0.09,0,0.17,0.03,0.23,0.1c0.06,0.07,0.09,0.15,0.09,0.26v1.32
		c0,0.06,0.01,0.11,0.03,0.14s0.06,0.04,0.13,0.04h2.72c0.08,0,0.14,0.03,0.19,0.08s0.08,0.1,0.08,0.16c0,0.06-0.02,0.12-0.07,0.18
		c-0.04,0.05-0.11,0.08-0.19,0.08H28.4c-0.27,0-0.48-0.04-0.61-0.14C27.65,29.92,27.58,29.74,27.59,29.47z M29.21,25.78
		c-0.05,0-0.09-0.02-0.13-0.06s-0.06-0.1-0.06-0.18c0-0.07,0.02-0.12,0.06-0.17s0.08-0.06,0.14-0.06h1.44v-1.89
		c0-0.16-0.04-0.27-0.12-0.32s-0.18-0.09-0.32-0.12c-0.12-0.02-0.2-0.04-0.24-0.07c-0.05-0.03-0.07-0.07-0.07-0.12
		c0-0.06,0.03-0.11,0.08-0.14s0.11-0.04,0.19-0.04h0.75c0.09,0,0.17,0.04,0.22,0.11c0.06,0.07,0.09,0.16,0.09,0.25v4.62
		c0,0.27-0.04,0.46-0.12,0.58c-0.08,0.12-0.19,0.18-0.32,0.18h-0.14v-2.55H29.21z"/>
</g>
</svg>
